<svg xmlns="http://www.w3.org/2000/svg" xmlns:xlink="http://www.w3.org/1999/xlink" width="584" zoomAndPan="magnify" viewBox="0 0 438 437.999984" height="584" preserveAspectRatio="xMidYMid meet" version="1.0"><path stroke-linecap="butt" transform="matrix(0.267667, 0, 0, 0.267667, 218.999991, 218.999983)" fill="none" stroke-linejoin="miter" d="M 550.007864 0.0000639788 C 550.007864 -298.032729 308.02952 -539.99648 10.011321 -539.99648 C 10.011321 -539.99648 0.0292215 -539.99648 0.0292215 -539.99648 C -297.988978 -539.99648 -539.967322 -298.032729 -539.967322 0.0000639788 C -539.967322 298.032857 -297.988978 539.996607 0.0292215 539.996607 C 0.0292215 539.996607 10.011321 539.996607 10.011321 539.996607 C 308.02952 539.996607 550.007864 298.032857 550.007864 0.0000639788 Z M 550.007864 0.0000639788 " stroke="#000000" stroke-width="40" stroke-opacity="1" stroke-miterlimit="4"/><path stroke-linecap="round" transform="matrix(0.405556, 0, 0, 0.405556, 222.309658, 218.902262)" fill="none" stroke-linejoin="round" d="M -63.38983 -135.04797 C -63.38983 -135.04797 63.384582 0.000201372 63.384582 0.000201372 C 63.384582 0.000201372 -63.38983 135.048372 -63.38983 135.048372 " stroke="#000000" stroke-width="40" stroke-opacity="1" stroke-miterlimit="4"/></svg>