<svg width="28" height="30" viewBox="0 0 28 30" fill="none" xmlns="http://www.w3.org/2000/svg">
<path d="M24.5 2.30769H19.8333V1.15385C19.8333 0.519231 19.3083 0 18.6667 0C18.025 0 17.5 0.519231 17.5 1.15385V2.30769H9.33333V1.15385C9.33333 0.519231 8.80833 0 8.16667 0C7.525 0 7 0.519231 7 1.15385V2.30769H3.5C1.56333 2.30769 0 3.85385 0 5.76923V26.5385C0 28.4538 1.56333 30 3.5 30H24.5C26.4367 30 28 28.4538 28 26.5385V5.76923C28 3.85385 26.4367 2.30769 24.5 2.30769ZM3.5 4.61538H7V5.76923C7 6.40385 7.525 6.92308 8.16667 6.92308C8.80833 6.92308 9.33333 6.40385 9.33333 5.76923V4.61538H17.5V5.76923C17.5 6.40385 18.025 6.92308 18.6667 6.92308C19.3083 6.92308 19.8333 6.40385 19.8333 5.76923V4.61538H24.5C25.1417 4.61538 25.6667 5.13462 25.6667 5.76923V10.3846H2.33333V5.76923C2.33333 5.13462 2.85833 4.61538 3.5 4.61538ZM24.5 27.6923H3.5C2.85833 27.6923 2.33333 27.1731 2.33333 26.5385V12.6923H25.6667V26.5385C25.6667 27.1731 25.1417 27.6923 24.5 27.6923Z" fill="#1B1B1B"/>
</svg>
