<svg width="20" height="21" viewBox="0 0 20 21" fill="none" xmlns="http://www.w3.org/2000/svg">
<path d="M18.4615 0.336426H1.53846C0.689979 0.336426 0 1.0264 0 1.87489V18.798C0 19.6464 0.689979 20.3364 1.53846 20.3364H9.61539C9.82798 20.3364 10 20.1644 10 19.9518V14.5672C10 14.3546 9.82798 14.1826 9.61539 14.1826H8.07692C7.86471 14.1826 7.69231 14.0102 7.69231 13.798V10.721C7.69231 10.5088 7.86471 10.3364 8.07692 10.3364H9.61539C9.82798 10.3364 10 10.1644 10 9.95181V8.41335C10 6.08049 11.8979 4.18258 14.2308 4.18258H16.5385C16.7507 4.18258 16.9231 4.35498 16.9231 4.56719V7.64412C16.9231 7.85633 16.7507 8.02873 16.5385 8.02873H15C14.3637 8.02873 13.8462 8.54631 13.8462 9.18258V9.95181C13.8462 10.1644 14.0182 10.3364 14.2308 10.3364H16.5385C16.6489 10.3364 16.7537 10.3838 16.8269 10.4668C16.8998 10.5494 16.9336 10.6594 16.9201 10.7687L16.5355 13.8457C16.5114 14.0376 16.3473 14.1826 16.1538 14.1826H14.2308C14.0182 14.1826 13.8462 14.3546 13.8462 14.5672V19.9518C13.8462 20.1644 14.0182 20.3364 14.2308 20.3364H18.4615C19.31 20.3364 20 19.6464 20 18.798V1.87489C20 1.0264 19.31 0.336426 18.4615 0.336426Z" fill="#121618"/>
</svg>
