<svg xmlns="http://www.w3.org/2000/svg" xmlns:xlink="http://www.w3.org/1999/xlink" width="584" zoomAndPan="magnify" viewBox="0 0 438 437.999984" height="584" preserveAspectRatio="xMidYMid meet" version="1.0">
  <path stroke-linecap="butt" transform="matrix(0.405556, 0, 0, 0.405556, 219.012164, 218.901837)" fill="none" stroke-linejoin="miter" d="M 350.819781 0.00124882 C 350.819781 193.225795 193.753201 349.858942 -0.00109707 349.858942 C -193.755395 349.858942 -350.821975 193.225795 -350.821975 0.00124882 C -350.821975 -193.223297 -193.755395 -349.856444 -0.00109707 -349.856444 C 193.753201 -349.856444 350.819781 -193.223297 350.819781 0.00124882 Z M 350.819781 0.00124882 " stroke="#000000" stroke-width="25" stroke-opacity="1" stroke-miterlimit="10"/>
  <path stroke-linecap="round" transform="matrix(0.406564, 0, 0, 0.406564, 219.012164, 215.454636)" fill="none" stroke-linejoin="round" d="M -2.470341 -68.287525 C -2.470341 -68.287525 -82.879402 -146.429106 -140.575233 -72.524638 C -219.274076 28.282133 -2.470341 146.421673 -2.470341 146.421673 C -2.470341 146.421673 219.271888 31.250994 132.665689 -74.302111 C 76.074774 -143.268086 -2.470341 -68.287525 -2.470341 -68.287525 Z M -2.470341 -68.287525 " stroke="#000000" stroke-width="34" stroke-opacity="1" stroke-miterlimit="4"/>
</svg>