<svg width="20" height="21" viewBox="0 0 20 21" fill="none" xmlns="http://www.w3.org/2000/svg">
<path d="M18.4615 0.336426H1.53846C0.689979 0.336426 0 1.0264 0 1.87489V18.798C0 19.6464 0.689979 20.3364 1.53846 20.3364H18.4615C19.31 20.3364 20 19.6464 20 18.798V1.87489C20 1.0264 19.31 0.336426 18.4615 0.336426ZM6.92308 17.6441C6.92308 17.8567 6.75105 18.0287 6.53846 18.0287H3.46154C3.24895 18.0287 3.07692 17.8567 3.07692 17.6441V8.41335C3.07692 8.20076 3.24895 8.02873 3.46154 8.02873H6.53846C6.75105 8.02873 6.92308 8.20076 6.92308 8.41335V17.6441ZM5 7.2595C3.93968 7.2595 3.07692 6.39675 3.07692 5.33643C3.07692 4.2761 3.93968 3.41335 5 3.41335C6.06032 3.41335 6.92308 4.2761 6.92308 5.33643C6.92308 6.39675 6.06032 7.2595 5 7.2595ZM17.6923 17.6441C17.6923 17.8567 17.5203 18.0287 17.3077 18.0287H14.2308C14.0182 18.0287 13.8462 17.8567 13.8462 17.6441V12.2595C13.8462 11.6232 13.3286 11.1057 12.6923 11.1057C12.056 11.1057 11.5385 11.6232 11.5385 12.2595V17.6441C11.5385 17.8567 11.3664 18.0287 11.1538 18.0287H8.07692C7.86433 18.0287 7.69231 17.8567 7.69231 17.6441V8.41335C7.69231 8.20076 7.86433 8.02873 8.07692 8.02873H11.1538C11.3664 8.02873 11.5385 8.20076 11.5385 8.41335C11.5385 8.57679 11.7282 8.67222 11.8676 8.58689C12.4587 8.22508 13.1393 8.02873 13.8462 8.02873C15.9668 8.02873 17.6923 9.75424 17.6923 11.8749V17.6441Z" fill="#121618"/>
</svg>
