<svg xmlns="http://www.w3.org/2000/svg" xmlns:xlink="http://www.w3.org/1999/xlink" width="584" zoomAndPan="magnify" viewBox="0 0 438 437.999984" height="584" preserveAspectRatio="xMidYMid meet" version="1.0"><path fill="#1a1a1a" d="M 274.621094 344.007812 C 274.621094 352.234375 249.714844 358.902344 218.996094 358.902344 C 188.273438 358.902344 163.367188 352.234375 163.367188 344.007812 C 163.367188 335.785156 188.273438 329.117188 218.996094 329.117188 C 249.714844 329.117188 274.621094 335.785156 274.621094 344.007812 Z M 274.621094 344.007812 " fill-opacity="1" fill-rule="nonzero"/><path fill="#ef3e24" d="M 297.777344 157.78125 C 297.777344 114.269531 262.503906 79 218.996094 79 C 175.484375 79 140.214844 114.269531 140.214844 157.78125 C 140.214844 158.496094 140.226562 159.207031 140.246094 159.917969 C 140.246094 159.917969 140.214844 159.917969 140.214844 159.917969 C 140.246094 161.0625 140.316406 162.230469 140.417969 163.421875 C 140.941406 170.832031 142.488281 177.960938 144.921875 184.664062 C 159.925781 232.808594 206.105469 297.410156 216.777344 311.960938 C 217.875 313.460938 220.113281 313.460938 221.210938 311.960938 C 231.882812 297.410156 278.050781 232.824219 293.0625 184.683594 C 295.503906 177.960938 297.054688 170.816406 297.574219 163.382812 C 297.675781 162.207031 297.746094 161.050781 297.777344 159.917969 C 297.777344 159.917969 297.746094 159.917969 297.746094 159.917969 C 297.765625 159.207031 297.777344 158.496094 297.777344 157.78125 Z M 218.996094 196.980469 C 198.035156 196.980469 181.046875 179.988281 181.046875 159.027344 C 181.046875 138.070312 198.035156 121.078125 218.996094 121.078125 C 239.953125 121.078125 256.945312 138.070312 256.945312 159.027344 C 256.945312 179.988281 239.953125 196.980469 218.996094 196.980469 Z M 218.996094 196.980469 " fill-opacity="1" fill-rule="nonzero"/></svg>