<svg width="28" height="35" viewBox="0 0 28 35" fill="none" xmlns="http://www.w3.org/2000/svg">
<path d="M13.8276 34.8317C14.1463 34.8317 14.4473 34.7078 14.6657 34.4776C15.1968 33.9405 27.6494 21.2047 27.6494 13.8217C27.6494 6.20266 21.4526 0 13.8276 0C6.20266 0 0 6.20266 0 13.8276C0 21.4526 12.4584 33.9405 12.9837 34.4835C13.208 34.7078 13.5089 34.8317 13.8276 34.8317ZM13.8276 2.36067C20.1483 2.36067 25.2946 7.50693 25.2946 13.8276C25.2946 18.7614 17.6755 27.8677 13.8276 31.9517C9.98564 27.8736 2.36067 18.7673 2.36067 13.8276C2.36067 7.50693 7.50693 2.36067 13.8276 2.36067Z" fill="#1B1B1B"/>
<path d="M21.2679 13.8274C21.2679 9.72573 17.9276 6.38538 13.8259 6.38538C9.72426 6.38538 6.38391 9.72573 6.38391 13.8274C6.38391 17.9291 9.72426 21.2694 13.8259 21.2694C17.9276 21.2694 21.2679 17.9291 21.2679 13.8274ZM8.74458 13.8274C8.74458 11.0241 11.0226 8.74605 13.8259 8.74605C16.6292 8.74605 18.9073 11.0241 18.9073 13.8274C18.9073 16.6307 16.6292 18.9087 13.8259 18.9087C11.0226 18.9087 8.74458 16.6307 8.74458 13.8274Z" fill="#1B1B1B"/>
</svg>
