<svg width="15" height="15" viewBox="0 0 15 15" fill="none" xmlns="http://www.w3.org/2000/svg">
<path d="M7.51922 0.13147C7.08431 0.13147 6.73206 0.483721 6.73206 0.918624V6.62549H1.02519C0.590289 6.62549 0.238037 6.97775 0.238037 7.41265C0.238037 7.84755 0.590289 8.1998 1.02519 8.1998H6.73206V13.9067C6.73206 14.3416 7.08431 14.6938 7.51922 14.6938C7.95412 14.6938 8.30637 14.3416 8.30637 13.9067V8.1998H14.0132C14.4481 8.1998 14.8004 7.84755 14.8004 7.41265C14.8004 6.97775 14.4481 6.62549 14.0132 6.62549H8.30637V0.918624C8.30637 0.483721 7.95412 0.13147 7.51922 0.13147Z" fill="#1B1B1B"/>
</svg>
