<svg width="20" height="20" viewBox="0 0 20 20" fill="none" xmlns="http://www.w3.org/2000/svg">
<rect width="20" height="20" rx="1.5" fill="black"/>
<path d="M7.47466 3C8.74815 4.68931 10.0216 6.37869 11.295 8.068C12.8687 6.37869 14.4423 4.68931 16.016 3H17.3105C17.3058 3.01631 17.3012 3.03269 17.2965 3.049C15.4953 4.981 13.6942 6.913 11.8931 8.845V8.873C13.9287 11.582 15.9644 14.291 18 17H13.5113C12.144 15.1753 10.7767 13.3507 9.40946 11.526C7.71384 13.3507 6.0183 15.1753 4.32269 17H3C4.93712 14.9163 6.87431 12.8327 8.81143 10.749C6.87902 8.166 4.94655 5.583 3.01408 3H7.47466ZM4.96295 3.98C7.98829 8.00731 11.0136 12.0347 14.039 16.062H16.0653C16.0582 16.041 16.0512 16.02 16.0442 15.999C13.0375 11.9997 10.031 8.00031 7.02438 4.001L7.00326 3.98H4.96295Z" fill="white"/>
</svg>
