<svg width="20" height="20" viewBox="0 0 20 20" fill="none" xmlns="http://www.w3.org/2000/svg">
<rect width="20" height="20" rx="1.5" fill="#121618"/>
<path d="M16.7084 6.56162C16.5471 5.94661 16.0734 5.46331 15.4707 5.29868C14.3782 5 10 5 10 5C10 5 5.62183 5 4.53046 5.29868C3.92772 5.46331 3.45407 5.94661 3.29272 6.56162C3 7.67521 3 10 3 10C3 10 3 12.3248 3.29272 13.4384C3.45407 14.0534 3.92772 14.5367 4.53046 14.7013C5.62183 15 10 15 10 15C10 15 14.3782 15 15.4695 14.7013C16.0723 14.5367 16.5459 14.0534 16.7073 13.4384C17 12.3248 17 10 17 10C17 10 17 7.67521 16.7073 6.56162H16.7084ZM8.59977 12.1425V7.85748L12.2369 10L8.59977 12.1425Z" fill="white"/>
</svg>
