<svg width="583" height="200" viewBox="0 0 583 200" fill="none" xmlns="http://www.w3.org/2000/svg">
<path d="M481.424 0H70C37.0017 0 20.5025 0 10.2513 10.2513C0 20.5025 0 37.0017 0 70V129.5C0 162.498 0 178.997 10.2513 189.249C20.5025 199.5 37.0017 199.5 70 199.5H512.57C545.568 199.5 562.067 199.5 572.319 189.249C582.57 178.997 582.57 162.498 582.57 129.5V98.6911C582.57 83.5702 582.57 76.0098 579.624 69.2915C576.679 62.5732 571.118 57.4508 559.997 47.2061L528.85 18.515C518.919 9.36687 513.954 4.79282 507.816 2.39641C501.677 0 494.926 0 481.424 0Z" fill="#2B8000"/>
</svg>
