<svg width="398" height="486" viewBox="0 0 398 486" fill="none" xmlns="http://www.w3.org/2000/svg">
<path d="M0 416V149.797C0 125.65 0 113.577 5.70241 104.852C8.34806 100.804 11.8039 97.3481 15.8519 94.7024C24.5768 89 36.6502 89 60.797 89C78.4244 89 87.2381 89 94.5212 85.4336C97.9329 83.7629 101.05 81.5479 103.75 78.8755C109.514 73.1708 112.413 64.8476 118.211 48.2011L119.5 44.5C126.556 24.2421 130.084 14.1132 137.785 7.84906C138.963 6.89022 140.203 6.00915 141.496 5.21144C149.945 0 160.671 0 182.122 0H328C360.998 0 377.497 0 387.749 10.2513C398 20.5025 398 37.0017 398 70V416C398 448.998 398 465.497 387.749 475.749C377.497 486 360.998 486 328 486H70C37.0017 486 20.5025 486 10.2513 475.749C0 465.497 0 448.998 0 416Z" fill="#406B95"/>
</svg>
